<svg width="163" height="25" viewBox="0 0 163 25" fill="none" xmlns="http://www.w3.org/2000/svg">
<path d="M7.02557 19H0.580256V0.818181H7.07884C8.90767 0.818181 10.482 1.18217 11.8018 1.91016C13.1217 2.63222 14.1367 3.67093 14.8469 5.02628C15.5631 6.38163 15.9212 8.00331 15.9212 9.89134C15.9212 11.7853 15.5631 13.4129 14.8469 14.7741C14.1367 16.1354 13.1158 17.18 11.7841 17.908C10.4583 18.636 8.87216 19 7.02557 19ZM4.42436 15.7063H6.86577C8.00213 15.7063 8.95798 15.5051 9.73331 15.1026C10.5146 14.6942 11.1005 14.0639 11.4911 13.2116C11.8877 12.3535 12.0859 11.2467 12.0859 9.89134C12.0859 8.54782 11.8877 7.44993 11.4911 6.59766C11.1005 5.74538 10.5175 5.11802 9.74219 4.71555C8.96686 4.31309 8.01101 4.11186 6.87465 4.11186H4.42436V15.7063ZM24.9122 19.2663C23.5095 19.2663 22.3021 18.9822 21.29 18.4141C20.2839 17.84 19.5086 17.0291 18.964 15.9815C18.4195 14.928 18.1473 13.6822 18.1473 12.244C18.1473 10.8413 18.4195 9.6102 18.964 8.55078C19.5086 7.49136 20.275 6.66572 21.2634 6.07386C22.2577 5.48201 23.4237 5.18608 24.7613 5.18608C25.6609 5.18608 26.4984 5.33108 27.2737 5.62109C28.055 5.90518 28.7356 6.33428 29.3156 6.90838C29.9015 7.48248 30.3573 8.20455 30.6828 9.07457C31.0083 9.93868 31.1711 10.9508 31.1711 12.1108V13.1495H19.6565V10.8058H27.6111C27.6111 10.2612 27.4927 9.77888 27.2559 9.35866C27.0192 8.93845 26.6907 8.60997 26.2705 8.37322C25.8562 8.13056 25.3738 8.00923 24.8234 8.00923C24.2493 8.00923 23.7403 8.1424 23.2964 8.40874C22.8585 8.66915 22.5152 9.02131 22.2666 9.4652C22.018 9.90317 21.8908 10.3915 21.8849 10.93V13.1584C21.8849 13.8331 22.0091 14.4161 22.2577 14.9073C22.5122 15.3986 22.8703 15.7773 23.3319 16.0437C23.7936 16.31 24.3411 16.4432 24.9743 16.4432C25.3946 16.4432 25.7793 16.384 26.1285 16.2656C26.4777 16.1473 26.7765 15.9697 27.0251 15.733C27.2737 15.4962 27.4631 15.2062 27.5933 14.8629L31.0912 15.0938C30.9136 15.9342 30.5496 16.6681 29.9992 17.2955C29.4547 17.9169 28.7504 18.4022 27.8863 18.7514C27.0281 19.0947 26.0367 19.2663 24.9122 19.2663ZM39.8536 19.2663C38.4509 19.2663 37.2435 18.9822 36.2314 18.4141C35.2253 17.84 34.45 17.0291 33.9055 15.9815C33.3609 14.928 33.0887 13.6822 33.0887 12.244C33.0887 10.8413 33.3609 9.6102 33.9055 8.55078C34.45 7.49136 35.2164 6.66572 36.2048 6.07386C37.1991 5.48201 38.3651 5.18608 39.7027 5.18608C40.6023 5.18608 41.4398 5.33108 42.2151 5.62109C42.9964 5.90518 43.677 6.33428 44.257 6.90838C44.843 7.48248 45.2987 8.20455 45.6242 9.07457C45.9497 9.93868 46.1125 10.9508 46.1125 12.1108V13.1495H34.5979V10.8058H42.5525C42.5525 10.2612 42.4341 9.77888 42.1974 9.35866C41.9606 8.93845 41.6321 8.60997 41.2119 8.37322C40.7976 8.13056 40.3153 8.00923 39.7648 8.00923C39.1907 8.00923 38.6817 8.1424 38.2378 8.40874C37.7999 8.66915 37.4566 9.02131 37.208 9.4652C36.9594 9.90317 36.8322 10.3915 36.8263 10.93V13.1584C36.8263 13.8331 36.9506 14.4161 37.1991 14.9073C37.4536 15.3986 37.8117 15.7773 38.2733 16.0437C38.735 16.31 39.2825 16.4432 39.9157 16.4432C40.336 16.4432 40.7207 16.384 41.0699 16.2656C41.4191 16.1473 41.718 15.9697 41.9665 15.733C42.2151 15.4962 42.4045 15.2062 42.5347 14.8629L46.0326 15.0938C45.855 15.9342 45.491 16.6681 44.9406 17.2955C44.3961 17.9169 43.6918 18.4022 42.8277 18.7514C41.9695 19.0947 40.9781 19.2663 39.8536 19.2663ZM48.5805 24.1136V5.36364H52.3092V7.65412H52.4779C52.6436 7.28717 52.8833 6.9143 53.197 6.53551C53.5166 6.1508 53.9309 5.8312 54.4399 5.5767C54.9548 5.31629 55.594 5.18608 56.3575 5.18608C57.3518 5.18608 58.2692 5.4465 59.1096 5.96733C59.9501 6.48224 60.6218 7.26053 61.1249 8.3022C61.628 9.33795 61.8795 10.6371 61.8795 12.1996C61.8795 13.7206 61.6339 15.005 61.1427 16.0526C60.6573 17.0942 59.9945 17.8844 59.154 18.4229C58.3195 18.9556 57.3844 19.2219 56.3486 19.2219C55.6147 19.2219 54.9903 19.1006 54.4754 18.858C53.9664 18.6153 53.5492 18.3105 53.2236 17.9435C52.8981 17.5707 52.6495 17.1948 52.4779 16.8161H52.3625V24.1136H48.5805ZM52.2826 12.1818C52.2826 12.9927 52.395 13.6999 52.6199 14.3036C52.8448 14.9073 53.1704 15.3778 53.5965 15.7152C54.0226 16.0466 54.5405 16.2124 55.1501 16.2124C55.7657 16.2124 56.2865 16.0437 56.7126 15.7063C57.1388 15.363 57.4613 14.8896 57.6803 14.2859C57.9052 13.6763 58.0177 12.9749 58.0177 12.1818C58.0177 11.3946 57.9082 10.7022 57.6892 10.1044C57.4702 9.50663 57.1476 9.03906 56.7215 8.7017C56.2954 8.36435 55.7716 8.19567 55.1501 8.19567C54.5346 8.19567 54.0138 8.35843 53.5876 8.68395C53.1674 9.00947 52.8448 9.47112 52.6199 10.0689C52.395 10.6667 52.2826 11.371 52.2826 12.1818ZM80.5141 7.18359H76.6256C76.5546 6.68052 76.4096 6.23366 76.1906 5.84304C75.9716 5.4465 75.6905 5.10914 75.3472 4.83097C75.0039 4.55279 74.6074 4.33972 74.1576 4.19176C73.7137 4.0438 73.2313 3.96982 72.7105 3.96982C71.7694 3.96982 70.9497 4.2036 70.2513 4.67116C69.5529 5.13281 69.0114 5.80753 68.6267 6.69531C68.242 7.57718 68.0496 8.64844 68.0496 9.90909C68.0496 11.2053 68.242 12.2943 68.6267 13.1761C69.0173 14.058 69.5618 14.7238 70.2602 15.1737C70.9586 15.6235 71.7665 15.8484 72.6839 15.8484C73.1988 15.8484 73.6752 15.7803 74.1132 15.6442C74.5571 15.508 74.9507 15.3098 75.2939 15.0494C75.6372 14.783 75.9213 14.4605 76.1462 14.0817C76.377 13.7029 76.5368 13.2708 76.6256 12.7855L80.5141 12.8033C80.4135 13.6378 80.162 14.4427 79.7595 15.218C79.363 15.9875 78.8273 16.677 78.1526 17.2866C77.4838 17.8903 76.6848 18.3697 75.7556 18.7248C74.8323 19.074 73.7877 19.2486 72.6217 19.2486C71 19.2486 69.55 18.8816 68.2716 18.1477C66.9991 17.4138 65.9929 16.3514 65.2531 14.9606C64.5192 13.5697 64.1523 11.8859 64.1523 9.90909C64.1523 7.92637 64.5251 6.23958 65.2709 4.84872C66.0166 3.45786 67.0287 2.39844 68.3071 1.67045C69.5855 0.936553 71.0237 0.569602 72.6217 0.569602C73.6752 0.569602 74.6518 0.717566 75.5514 1.01349C76.4569 1.30942 77.2589 1.74148 77.9573 2.30966C78.6557 2.87192 79.2239 3.56143 79.6618 4.3782C80.1057 5.19496 80.3898 6.13009 80.5141 7.18359ZM89.3609 19.2663C87.9819 19.2663 86.7893 18.9734 85.7831 18.3874C84.7829 17.7956 84.0105 16.9729 83.466 15.9194C82.9215 14.86 82.6492 13.6319 82.6492 12.2351C82.6492 10.8265 82.9215 9.59541 83.466 8.5419C84.0105 7.48248 84.7829 6.6598 85.7831 6.07386C86.7893 5.48201 87.9819 5.18608 89.3609 5.18608C90.7399 5.18608 91.9295 5.48201 92.9298 6.07386C93.9359 6.6598 94.7113 7.48248 95.2558 8.5419C95.8003 9.59541 96.0725 10.8265 96.0725 12.2351C96.0725 13.6319 95.8003 14.86 95.2558 15.9194C94.7113 16.9729 93.9359 17.7956 92.9298 18.3874C91.9295 18.9734 90.7399 19.2663 89.3609 19.2663ZM89.3786 16.3366C90.006 16.3366 90.5298 16.1591 90.95 15.804C91.3702 15.4429 91.6869 14.9517 91.8999 14.3303C92.1189 13.7088 92.2284 13.0015 92.2284 12.2085C92.2284 11.4154 92.1189 10.7081 91.8999 10.0866C91.6869 9.4652 91.3702 8.97396 90.95 8.61293C90.5298 8.25189 90.006 8.07138 89.3786 8.07138C88.7454 8.07138 88.2127 8.25189 87.7806 8.61293C87.3545 8.97396 87.0319 9.4652 86.8129 10.0866C86.5999 10.7081 86.4933 11.4154 86.4933 12.2085C86.4933 13.0015 86.5999 13.7088 86.8129 14.3303C87.0319 14.9517 87.3545 15.4429 87.7806 15.804C88.2127 16.1591 88.7454 16.3366 89.3786 16.3366ZM107.276 13.1939V5.36364H111.058V19H107.427V16.5231H107.285C106.977 17.3221 106.466 17.9643 105.749 18.4496C105.039 18.9349 104.172 19.1776 103.148 19.1776C102.237 19.1776 101.435 18.9704 100.742 18.5561C100.05 18.1418 99.5083 17.5529 99.1176 16.7894C98.7329 16.0259 98.5376 15.1115 98.5317 14.0462V5.36364H102.314V13.3714C102.32 14.1764 102.536 14.8126 102.962 15.2802C103.388 15.7478 103.959 15.9815 104.675 15.9815C105.131 15.9815 105.557 15.878 105.954 15.6708C106.35 15.4577 106.67 15.1441 106.912 14.7298C107.161 14.3155 107.282 13.8035 107.276 13.1939ZM117.865 11.1165V19H114.083V5.36364H117.688V7.76953H117.848C118.15 6.97644 118.656 6.34908 119.366 5.88743C120.076 5.41986 120.937 5.18608 121.949 5.18608C122.896 5.18608 123.722 5.39323 124.426 5.80753C125.13 6.22183 125.678 6.81368 126.069 7.5831C126.459 8.34659 126.654 9.25805 126.654 10.3175V19H122.873V10.9922C122.878 10.1577 122.665 9.50663 122.233 9.03906C121.801 8.56558 121.206 8.32884 120.449 8.32884C119.94 8.32884 119.49 8.43833 119.099 8.65731C118.715 8.8763 118.413 9.1959 118.194 9.61612C117.981 10.0304 117.871 10.5305 117.865 11.1165ZM140.981 9.25213L137.519 9.4652C137.46 9.16927 137.332 8.90294 137.137 8.66619C136.942 8.42353 136.684 8.23118 136.365 8.08913C136.051 7.94117 135.675 7.86719 135.237 7.86719C134.651 7.86719 134.157 7.99148 133.755 8.24006C133.352 8.48272 133.151 8.80824 133.151 9.21662C133.151 9.54214 133.281 9.81735 133.541 10.0423C133.802 10.2672 134.249 10.4477 134.882 10.5838L137.35 11.081C138.676 11.3532 139.664 11.7912 140.315 12.3949C140.966 12.9986 141.292 13.7917 141.292 14.7741C141.292 15.6679 141.028 16.4521 140.502 17.1268C139.981 17.8015 139.265 18.3282 138.353 18.707C137.448 19.0799 136.403 19.2663 135.219 19.2663C133.414 19.2663 131.976 18.8905 130.905 18.1388C129.839 17.3813 129.215 16.3514 129.032 15.0494L132.751 14.854C132.864 15.4045 133.136 15.8247 133.568 16.1147C134 16.3988 134.554 16.5408 135.228 16.5408C135.891 16.5408 136.424 16.4136 136.826 16.1591C137.235 15.8987 137.442 15.5643 137.448 15.1559C137.442 14.8126 137.297 14.5315 137.013 14.3125C136.729 14.0876 136.291 13.916 135.699 13.7976L133.337 13.3271C132.006 13.0607 131.014 12.5991 130.363 11.9421C129.718 11.2852 129.396 10.4477 129.396 9.42969C129.396 8.55374 129.632 7.79912 130.106 7.16584C130.585 6.53255 131.257 6.04427 132.121 5.70099C132.991 5.35772 134.009 5.18608 135.175 5.18608C136.897 5.18608 138.253 5.55007 139.241 6.27805C140.235 7.00604 140.815 7.9974 140.981 9.25213ZM149.888 19.2663C148.485 19.2663 147.278 18.9822 146.266 18.4141C145.259 17.84 144.484 17.0291 143.94 15.9815C143.395 14.928 143.123 13.6822 143.123 12.244C143.123 10.8413 143.395 9.6102 143.94 8.55078C144.484 7.49136 145.251 6.66572 146.239 6.07386C147.233 5.48201 148.399 5.18608 149.737 5.18608C150.636 5.18608 151.474 5.33108 152.249 5.62109C153.031 5.90518 153.711 6.33428 154.291 6.90838C154.877 7.48248 155.333 8.20455 155.658 9.07457C155.984 9.93868 156.147 10.9508 156.147 12.1108V13.1495H144.632V10.8058H152.587C152.587 10.2612 152.468 9.77888 152.232 9.35866C151.995 8.93845 151.666 8.60997 151.246 8.37322C150.832 8.13056 150.349 8.00923 149.799 8.00923C149.225 8.00923 148.716 8.1424 148.272 8.40874C147.834 8.66915 147.491 9.02131 147.242 9.4652C146.994 9.90317 146.866 10.3915 146.86 10.93V13.1584C146.86 13.8331 146.985 14.4161 147.233 14.9073C147.488 15.3986 147.846 15.7773 148.308 16.0437C148.769 16.31 149.317 16.4432 149.95 16.4432C150.37 16.4432 150.755 16.384 151.104 16.2656C151.453 16.1473 151.752 15.9697 152.001 15.733C152.249 15.4962 152.439 15.2062 152.569 14.8629L156.067 15.0938C155.889 15.9342 155.525 16.6681 154.975 17.2955C154.43 17.9169 153.726 18.4022 152.862 18.7514C152.004 19.0947 151.012 19.2663 149.888 19.2663ZM162.397 0.818181V19H158.615V0.818181H162.397Z" fill="white"/>
</svg>
