<svg width="518" height="76" viewBox="0 0 518 76" fill="none" xmlns="http://www.w3.org/2000/svg">
<path d="M20.6818 59H0.0568181V0.81818H20.8523C26.7045 0.81818 31.7424 1.98295 35.9659 4.3125C40.1894 6.6231 43.4375 9.94697 45.7102 14.2841C48.0019 18.6212 49.1477 23.8106 49.1477 29.8523C49.1477 35.9129 48.0019 41.1212 45.7102 45.4773C43.4375 49.8333 40.1705 53.1761 35.9091 55.5057C31.6667 57.8352 26.5909 59 20.6818 59ZM12.358 48.4602H20.1705C23.8068 48.4602 26.8655 47.8163 29.3466 46.5284C31.8466 45.2216 33.7216 43.2045 34.9716 40.4773C36.2405 37.7311 36.875 34.1894 36.875 29.8523C36.875 25.553 36.2405 22.0398 34.9716 19.3125C33.7216 16.5852 31.8561 14.5777 29.375 13.2898C26.8939 12.0019 23.8352 11.358 20.1989 11.358H12.358V48.4602ZM77.919 59.8523C73.4304 59.8523 69.5668 58.9432 66.3281 57.125C63.1084 55.2879 60.6274 52.6932 58.8849 49.3409C57.1425 45.9697 56.2713 41.983 56.2713 37.3807C56.2713 32.892 57.1425 28.9527 58.8849 25.5625C60.6274 22.1723 63.08 19.5303 66.2429 17.6364C69.4247 15.7424 73.1558 14.7955 77.4361 14.7955C80.3149 14.7955 82.9948 15.2595 85.4759 16.1875C87.9759 17.0966 90.1539 18.4697 92.0099 20.3068C93.8849 22.1439 95.3433 24.4545 96.3849 27.2386C97.4266 30.0038 97.9474 33.2424 97.9474 36.9545V40.2784H61.1009V32.7784H86.5554C86.5554 31.036 86.1766 29.4924 85.419 28.1477C84.6615 26.803 83.6103 25.7519 82.2656 24.9943C80.9399 24.2178 79.3963 23.8295 77.6349 23.8295C75.7978 23.8295 74.169 24.2557 72.7486 25.108C71.3471 25.9413 70.2486 27.0682 69.4531 28.4886C68.6577 29.8902 68.2505 31.4527 68.2315 33.1761V40.3068C68.2315 42.4659 68.6293 44.3314 69.4247 45.9034C70.2391 47.4754 71.3849 48.6875 72.8622 49.5398C74.3395 50.392 76.0914 50.8182 78.1179 50.8182C79.4626 50.8182 80.6937 50.6288 81.8111 50.25C82.9285 49.8712 83.8849 49.303 84.6804 48.5455C85.4759 47.7879 86.0819 46.8598 86.4986 45.7614L97.6918 46.5C97.1236 49.1894 95.9588 51.5379 94.1974 53.5455C92.455 55.5341 90.2012 57.0871 87.4361 58.2045C84.6899 59.303 81.5175 59.8523 77.919 59.8523ZM125.732 59.8523C121.243 59.8523 117.379 58.9432 114.141 57.125C110.921 55.2879 108.44 52.6932 106.697 49.3409C104.955 45.9697 104.084 41.983 104.084 37.3807C104.084 32.892 104.955 28.9527 106.697 25.5625C108.44 22.1723 110.893 19.5303 114.055 17.6364C117.237 15.7424 120.968 14.7955 125.249 14.7955C128.127 14.7955 130.807 15.2595 133.288 16.1875C135.788 17.0966 137.966 18.4697 139.822 20.3068C141.697 22.1439 143.156 24.4545 144.197 27.2386C145.239 30.0038 145.76 33.2424 145.76 36.9545V40.2784H108.913V32.7784H134.368C134.368 31.036 133.989 29.4924 133.232 28.1477C132.474 26.803 131.423 25.7519 130.078 24.9943C128.752 24.2178 127.209 23.8295 125.447 23.8295C123.61 23.8295 121.982 24.2557 120.561 25.108C119.16 25.9413 118.061 27.0682 117.266 28.4886C116.47 29.8902 116.063 31.4527 116.044 33.1761V40.3068C116.044 42.4659 116.442 44.3314 117.237 45.9034C118.052 47.4754 119.197 48.6875 120.675 49.5398C122.152 50.392 123.904 50.8182 125.93 50.8182C127.275 50.8182 128.506 50.6288 129.624 50.25C130.741 49.8712 131.697 49.303 132.493 48.5455C133.288 47.7879 133.894 46.8598 134.311 45.7614L145.504 46.5C144.936 49.1894 143.771 51.5379 142.01 53.5455C140.268 55.5341 138.014 57.0871 135.249 58.2045C132.502 59.303 129.33 59.8523 125.732 59.8523ZM153.658 75.3636V15.3636H165.589V22.6932H166.129C166.66 21.5189 167.427 20.3258 168.43 19.1136C169.453 17.8826 170.779 16.8598 172.408 16.0455C174.055 15.2121 176.101 14.7955 178.544 14.7955C181.726 14.7955 184.661 15.6288 187.351 17.2955C190.04 18.9432 192.19 21.4337 193.8 24.767C195.41 28.0814 196.214 32.2386 196.214 37.2386C196.214 42.1061 195.429 46.2159 193.857 49.5682C192.304 52.9015 190.182 55.4299 187.493 57.1534C184.822 58.858 181.83 59.7102 178.516 59.7102C176.167 59.7102 174.169 59.322 172.521 58.5455C170.893 57.7689 169.557 56.7936 168.516 55.6193C167.474 54.4261 166.679 53.2235 166.129 52.0114H165.76V75.3636H153.658ZM165.504 37.1818C165.504 39.7765 165.864 42.0398 166.584 43.9716C167.304 45.9034 168.345 47.4091 169.709 48.4886C171.072 49.5492 172.73 50.0795 174.68 50.0795C176.65 50.0795 178.317 49.5398 179.68 48.4602C181.044 47.3617 182.076 45.8466 182.777 43.9148C183.497 41.964 183.857 39.7197 183.857 37.1818C183.857 34.6629 183.506 32.447 182.805 30.5341C182.105 28.6212 181.072 27.125 179.709 26.0455C178.345 24.9659 176.669 24.4261 174.68 24.4261C172.711 24.4261 171.044 24.947 169.68 25.9886C168.336 27.0303 167.304 28.5076 166.584 30.4205C165.864 32.3333 165.504 34.5871 165.504 37.1818ZM255.845 21.1875H243.402C243.175 19.5777 242.711 18.1477 242.01 16.8977C241.309 15.6288 240.41 14.5492 239.311 13.6591C238.213 12.7689 236.944 12.0871 235.504 11.6136C234.084 11.1402 232.54 10.9034 230.874 10.9034C227.862 10.9034 225.239 11.6515 223.004 13.1477C220.769 14.625 219.036 16.7841 217.805 19.625C216.574 22.447 215.959 25.875 215.959 29.9091C215.959 34.0568 216.574 37.5417 217.805 40.3636C219.055 43.1856 220.798 45.3163 223.033 46.7557C225.268 48.1951 227.853 48.9148 230.788 48.9148C232.436 48.9148 233.961 48.697 235.362 48.2614C236.783 47.8258 238.042 47.1913 239.141 46.358C240.239 45.5057 241.148 44.4735 241.868 43.2614C242.607 42.0492 243.118 40.6667 243.402 39.1136L255.845 39.1705C255.523 41.8409 254.718 44.4167 253.43 46.8977C252.161 49.3598 250.447 51.5663 248.288 53.517C246.148 55.4489 243.591 56.983 240.618 58.1193C237.663 59.2367 234.321 59.7955 230.589 59.7955C225.4 59.7955 220.76 58.6212 216.669 56.2727C212.597 53.9242 209.377 50.5246 207.01 46.0739C204.661 41.6231 203.487 36.2348 203.487 29.9091C203.487 23.5644 204.68 18.1667 207.067 13.7159C209.453 9.26515 212.692 5.875 216.783 3.54545C220.874 1.19697 225.476 0.0227251 230.589 0.0227251C233.961 0.0227251 237.086 0.49621 239.964 1.44318C242.862 2.39015 245.429 3.77273 247.663 5.59091C249.898 7.39015 251.716 9.59659 253.118 12.2102C254.538 14.8239 255.447 17.8163 255.845 21.1875ZM284.155 59.8523C279.742 59.8523 275.926 58.9148 272.706 57.0398C269.505 55.1458 267.034 52.5133 265.291 49.142C263.549 45.7519 262.678 41.822 262.678 37.3523C262.678 32.8447 263.549 28.9053 265.291 25.5341C267.034 22.1439 269.505 19.5114 272.706 17.6364C275.926 15.7424 279.742 14.7955 284.155 14.7955C288.568 14.7955 292.375 15.7424 295.575 17.6364C298.795 19.5114 301.276 22.1439 303.018 25.5341C304.761 28.9053 305.632 32.8447 305.632 37.3523C305.632 41.822 304.761 45.7519 303.018 49.142C301.276 52.5133 298.795 55.1458 295.575 57.0398C292.375 58.9148 288.568 59.8523 284.155 59.8523ZM284.212 50.4773C286.219 50.4773 287.895 49.9091 289.24 48.7727C290.585 47.6174 291.598 46.0455 292.28 44.0568C292.981 42.0682 293.331 39.8049 293.331 37.267C293.331 34.7292 292.981 32.4659 292.28 30.4773C291.598 28.4886 290.585 26.9167 289.24 25.7614C287.895 24.6061 286.219 24.0284 284.212 24.0284C282.185 24.0284 280.481 24.6061 279.098 25.7614C277.734 26.9167 276.702 28.4886 276.001 30.4773C275.32 32.4659 274.979 34.7292 274.979 37.267C274.979 39.8049 275.32 42.0682 276.001 44.0568C276.702 46.0455 277.734 47.6174 279.098 48.7727C280.481 49.9091 282.185 50.4773 284.212 50.4773ZM341.484 40.4205V15.3636H353.587V59H341.967V51.0739H341.513C340.528 53.6307 338.89 55.6856 336.598 57.2386C334.325 58.7917 331.551 59.5682 328.274 59.5682C325.357 59.5682 322.791 58.9053 320.575 57.5795C318.359 56.2538 316.626 54.3693 315.376 51.9261C314.145 49.483 313.52 46.5568 313.501 43.1477V15.3636H325.604V40.9886C325.623 43.5644 326.314 45.6004 327.678 47.0966C329.041 48.5928 330.869 49.3409 333.161 49.3409C334.619 49.3409 335.982 49.0095 337.251 48.3466C338.52 47.6648 339.543 46.661 340.32 45.3352C341.115 44.0095 341.503 42.3712 341.484 40.4205ZM375.369 33.7727V59H363.267V15.3636H374.801V23.0625H375.312C376.278 20.5246 377.898 18.517 380.17 17.0398C382.443 15.5436 385.199 14.7955 388.438 14.7955C391.468 14.7955 394.11 15.4583 396.364 16.7841C398.617 18.1098 400.369 20.0038 401.619 22.4659C402.869 24.9091 403.494 27.8258 403.494 31.2159V59H391.392V33.375C391.411 30.7045 390.729 28.6212 389.347 27.125C387.964 25.6098 386.061 24.8523 383.636 24.8523C382.008 24.8523 380.568 25.2027 379.318 25.9034C378.087 26.6042 377.121 27.6269 376.42 28.9716C375.739 30.2973 375.388 31.8977 375.369 33.7727ZM449.339 27.8068L438.26 28.4886C438.071 27.5417 437.663 26.6894 437.038 25.9318C436.413 25.1553 435.589 24.5398 434.567 24.0852C433.563 23.6117 432.36 23.375 430.959 23.375C429.084 23.375 427.502 23.7727 426.214 24.5682C424.927 25.3447 424.283 26.3864 424.283 27.6932C424.283 28.7348 424.699 29.6155 425.533 30.3352C426.366 31.0549 427.796 31.6326 429.822 32.0682L437.72 33.6591C441.963 34.5303 445.125 35.9318 447.209 37.8636C449.292 39.7955 450.334 42.3333 450.334 45.4773C450.334 48.3371 449.491 50.8466 447.805 53.0057C446.139 55.1648 443.847 56.8504 440.93 58.0625C438.033 59.2557 434.69 59.8523 430.902 59.8523C425.125 59.8523 420.523 58.6496 417.095 56.2443C413.686 53.8201 411.688 50.5246 411.101 46.358L423.004 45.733C423.364 47.4943 424.235 48.839 425.618 49.767C427 50.6761 428.771 51.1307 430.93 51.1307C433.052 51.1307 434.756 50.7235 436.044 49.9091C437.351 49.0758 438.014 48.0057 438.033 46.6989C438.014 45.6004 437.55 44.7008 436.641 44C435.732 43.2803 434.33 42.7311 432.436 42.3523L424.879 40.8466C420.618 39.9943 417.446 38.517 415.362 36.4148C413.298 34.3125 412.266 31.6326 412.266 28.375C412.266 25.572 413.023 23.1572 414.538 21.1307C416.072 19.1042 418.222 17.5417 420.987 16.4432C423.771 15.3447 427.029 14.7955 430.76 14.7955C436.271 14.7955 440.608 15.9602 443.771 18.2898C446.953 20.6193 448.809 23.7917 449.339 27.8068ZM477.841 59.8523C473.352 59.8523 469.489 58.9432 466.25 57.125C463.03 55.2879 460.549 52.6932 458.807 49.3409C457.064 45.9697 456.193 41.983 456.193 37.3807C456.193 32.892 457.064 28.9527 458.807 25.5625C460.549 22.1723 463.002 19.5303 466.165 17.6364C469.347 15.7424 473.078 14.7955 477.358 14.7955C480.237 14.7955 482.917 15.2595 485.398 16.1875C487.898 17.0966 490.076 18.4697 491.932 20.3068C493.807 22.1439 495.265 24.4545 496.307 27.2386C497.348 30.0038 497.869 33.2424 497.869 36.9545V40.2784H461.023V32.7784H486.477C486.477 31.036 486.098 29.4924 485.341 28.1477C484.583 26.803 483.532 25.7519 482.188 24.9943C480.862 24.2178 479.318 23.8295 477.557 23.8295C475.72 23.8295 474.091 24.2557 472.67 25.108C471.269 25.9413 470.17 27.0682 469.375 28.4886C468.58 29.8902 468.172 31.4527 468.153 33.1761V40.3068C468.153 42.4659 468.551 44.3314 469.347 45.9034C470.161 47.4754 471.307 48.6875 472.784 49.5398C474.261 50.392 476.013 50.8182 478.04 50.8182C479.384 50.8182 480.616 50.6288 481.733 50.25C482.85 49.8712 483.807 49.303 484.602 48.5455C485.398 47.7879 486.004 46.8598 486.42 45.7614L497.614 46.5C497.045 49.1894 495.881 51.5379 494.119 53.5455C492.377 55.5341 490.123 57.0871 487.358 58.2045C484.612 59.303 481.439 59.8523 477.841 59.8523ZM517.869 0.81818V59H505.767V0.81818H517.869Z" fill="#1E1E1E"/>
</svg>
